<?xml version="1.0" standalone="no"?>
<!DOCTYPE svg PUBLIC "-//W3C//DTD SVG 20010904//EN"
 "http://www.w3.org/TR/2001/REC-SVG-20010904/DTD/svg10.dtd">
<svg version="1.0" xmlns="http://www.w3.org/2000/svg"
 width="350.000000pt" height="350.000000pt" viewBox="0 0 350.000000 350.000000"
 preserveAspectRatio="xMidYMid meet">

<g transform="translate(0.000000,350.000000) scale(0.100000,-0.100000)"
fill="#000000" stroke="none">
<path d="M1438 3206 c-170 -70 -311 -269 -377 -533 -35 -141 -44 -216 -50
-425 l-6 -207 -80 91 c-44 51 -112 135 -151 188 -129 174 -218 239 -325 240
-81 0 -133 -30 -186 -109 -63 -93 -88 -181 -88 -316 0 -102 2 -115 33 -186 62
-145 200 -322 360 -464 l79 -70 -5 -150 c-6 -171 9 -265 59 -396 52 -134 128
-227 261 -317 36 -25 45 -36 41 -52 -8 -29 22 -102 55 -133 34 -32 104 -68
207 -104 74 -25 92 -28 225 -28 133 0 152 3 225 28 100 35 197 92 268 157 45
41 57 60 67 100 l12 49 74 16 c64 15 88 15 181 5 153 -17 228 -36 279 -71 64
-44 179 -96 254 -115 120 -30 218 0 267 83 27 46 28 53 27 178 0 116 -3 137
-27 198 -85 218 -275 335 -578 355 l-102 7 -15 40 c-8 22 -14 75 -14 117 -1
68 4 86 34 150 45 95 192 312 377 556 167 221 201 276 237 387 53 164 31 277
-66 333 -40 24 -55 27 -135 27 -176 -1 -368 -91 -593 -279 -169 -141 -369
-371 -429 -494 l-28 -57 -3 125 c-3 125 12 326 44 580 26 213 2 328 -87 425
-88 96 -201 121 -321 71z m200 -159 c65 -63 75 -163 43 -427 -27 -216 -44
-465 -39 -563 5 -107 32 -164 89 -196 85 -48 167 -6 230 118 20 39 63 106 94
149 78 103 289 313 398 393 183 137 409 215 463 162 13 -14 15 -29 11 -81 -11
-110 -56 -194 -231 -427 -174 -231 -340 -474 -386 -566 -47 -91 -63 -170 -57
-264 3 -44 10 -92 16 -107 10 -26 9 -27 -35 -34 -68 -10 -61 -21 19 -28 208
-19 409 -66 518 -121 129 -66 209 -198 225 -371 8 -90 -7 -141 -43 -150 -40
-10 -149 29 -251 91 -126 76 -269 109 -472 108 -108 0 -124 -3 -265 -47 -152
-48 -260 -65 -328 -52 -50 9 -156 102 -187 163 -22 43 -25 60 -25 158 1 100 4
120 37 217 20 58 56 144 79 190 47 94 34 89 -52 -18 -196 -247 -238 -514 -108
-694 36 -50 33 -85 -8 -101 -75 -28 -307 82 -422 200 -61 63 -100 145 -150
316 -78 273 -77 435 6 600 23 46 24 48 5 31 -16 -14 -66 -82 -99 -135 -6 -9
-119 98 -186 175 -147 173 -216 320 -202 432 10 78 40 170 70 215 54 78 119
39 267 -163 96 -131 468 -545 479 -532 8 9 46 118 54 156 3 15 -2 65 -12 110
-24 111 -24 389 0 544 48 311 174 530 336 587 44 15 73 6 119 -38z m39 -2554
c50 -3 112 -1 137 5 25 5 46 6 46 2 0 -14 -107 -60 -183 -79 -86 -22 -231 -35
-272 -25 -29 7 -28 7 19 21 31 9 60 27 84 53 28 30 42 38 57 34 11 -4 61 -9
112 -11z"/>
</g>
</svg>
