<?xml version="1.0" standalone="no"?>
<!DOCTYPE svg PUBLIC "-//W3C//DTD SVG 20010904//EN"
 "http://www.w3.org/TR/2001/REC-SVG-20010904/DTD/svg10.dtd">
<svg version="1.0" xmlns="http://www.w3.org/2000/svg"
 width="360.000000pt" height="360.000000pt" viewBox="0 0 360.000000 360.000000"
 preserveAspectRatio="xMidYMid meet">

<g transform="translate(0.000000,360.000000) scale(0.100000,-0.100000)"
fill="#000000" stroke="none">
<path d="M1930 3223 c-70 -12 -154 -38 -236 -73 -90 -38 -91 -39 -135 -23
-110 38 -324 -4 -523 -104 -205 -102 -313 -210 -374 -373 -16 -41 -63 -136
-105 -210 -102 -177 -127 -256 -127 -399 0 -127 26 -271 71 -394 47 -127 51
-154 45 -260 -13 -236 62 -533 169 -670 101 -128 332 -252 568 -303 97 -21
298 -21 402 1 257 53 536 196 809 413 l88 71 57 -29 c158 -81 284 -59 411 70
142 143 242 423 241 675 0 165 -50 315 -158 478 -98 146 -265 297 -348 313
l-33 6 5 121 c6 143 -7 210 -64 327 -53 110 -187 241 -303 298 -114 55 -190
72 -325 70 -60 0 -121 -3 -135 -5z m289 -168 c119 -31 228 -106 307 -211 66
-89 87 -150 88 -264 1 -129 -12 -165 -72 -192 -113 -52 -220 -207 -265 -385
l-22 -86 -95 6 c-132 8 -325 74 -520 178 -69 38 -75 39 -87 23 -7 -10 -13 -21
-13 -25 0 -4 36 -41 79 -82 135 -126 301 -193 509 -204 l112 -6 1 -76 c2 -133
11 -186 34 -189 18 -2 22 8 37 100 33 204 148 479 231 556 56 51 82 62 147 62
122 0 284 -127 383 -300 110 -193 105 -481 -14 -737 -85 -186 -178 -273 -289
-273 -94 0 -227 75 -346 196 -41 41 -74 72 -74 69 0 -13 55 -114 87 -159 19
-26 31 -52 26 -56 -4 -5 -58 -46 -120 -92 -405 -303 -756 -409 -1078 -325
-218 56 -402 167 -469 282 -68 116 -106 305 -106 533 0 153 0 155 -39 267 -58
167 -75 254 -75 375 1 126 8 148 109 325 40 72 88 168 106 214 26 68 44 96 94
150 93 98 229 173 410 226 115 34 195 36 255 5 47 -23 80 -48 80 -60 0 -4 -22
-21 -49 -38 -81 -53 -130 -115 -156 -200 -6 -22 -3 -21 47 12 126 84 263 118
493 122 150 3 160 4 163 22 8 48 -126 114 -258 128 -60 6 -110 31 -110 55 0
10 70 36 145 53 79 19 246 20 314 1z"/>
<path d="M2679 2087 c-41 -27 -83 -107 -99 -189 -6 -33 -11 -115 -11 -182 0
-196 37 -323 121 -419 41 -46 128 -97 164 -97 21 1 21 1 0 18 -12 9 -29 22
-38 27 -15 9 -13 21 15 130 23 90 32 151 36 247 9 190 -22 308 -101 396 -34
38 -35 41 -17 47 12 3 36 -1 56 -11 42 -19 79 -78 112 -174 20 -59 23 -62 23
-29 0 50 -27 137 -57 181 -28 42 -93 78 -140 78 -16 0 -45 -10 -64 -23z"/>
<path d="M2080 1477 c-87 -27 -299 -30 -377 -5 -29 9 -53 15 -53 13 0 -3 22
-16 48 -29 160 -81 331 -72 452 24 31 25 15 24 -70 -3z"/>
<path d="M2156 1334 c-65 -44 -237 -122 -321 -145 -54 -15 -110 -22 -172 -23
-50 -1 -86 -4 -80 -7 36 -19 135 -33 232 -33 128 1 194 21 273 84 45 35 120
135 110 145 -2 3 -21 -7 -42 -21z"/>
</g>
</svg>
