<?xml version="1.0" standalone="no"?>
<!DOCTYPE svg PUBLIC "-//W3C//DTD SVG 20010904//EN"
 "http://www.w3.org/TR/2001/REC-SVG-20010904/DTD/svg10.dtd">
<svg version="1.0" xmlns="http://www.w3.org/2000/svg"
 width="360.000000pt" height="360.000000pt" viewBox="0 0 360.000000 360.000000"
 preserveAspectRatio="xMidYMid meet">

<g transform="translate(0.000000,360.000000) scale(0.100000,-0.100000)"
fill="#000000" stroke="none">
<path d="M2823 3050 c-138 -38 -188 -60 -477 -208 -84 -44 -171 -68 -282 -78
-123 -11 -471 26 -563 61 -103 39 -298 45 -473 15 -192 -32 -302 -82 -396
-178 -50 -51 -54 -53 -75 -39 -87 57 -170 13 -274 -145 -116 -176 -192 -371
-217 -553 -37 -265 -21 -462 51 -613 37 -78 135 -177 193 -192 51 -14 102 -6
150 22 l34 20 46 -50 c76 -85 155 -132 290 -174 51 -16 97 -21 215 -23 l150
-3 30 -39 c136 -177 204 -240 327 -307 222 -120 477 -90 642 76 55 56 63 69
74 124 15 76 15 132 -2 259 -17 123 -37 196 -83 303 -19 46 -34 85 -32 87 2 2
51 -14 109 -35 140 -51 341 -114 470 -147 91 -23 126 -27 260 -27 169 -1 198
5 313 66 150 80 241 256 207 400 -18 77 -34 103 -91 148 -62 49 -95 59 -234
70 -60 5 -139 14 -174 20 -169 29 -652 172 -636 188 3 3 73 12 156 19 440 37
578 132 693 475 30 88 35 214 12 291 -19 63 -73 135 -121 160 -58 30 -196 34
-292 7z m262 -119 c56 -31 82 -128 65 -239 -13 -79 -100 -251 -159 -311 -86
-88 -195 -121 -476 -145 -275 -23 -461 -53 -599 -97 -25 -8 -34 -4 -73 29 -75
62 -135 101 -191 122 -75 29 -80 25 -25 -18 105 -84 280 -308 354 -454 40 -80
38 -131 -12 -296 -116 -385 -233 -570 -336 -531 -60 22 -127 116 -160 221 -22
69 -24 272 -4 343 16 56 61 129 121 198 22 25 40 47 40 50 0 3 -15 1 -32 -4
-63 -18 -68 -14 -61 36 7 52 0 57 -22 15 -27 -53 -186 -206 -245 -236 -50 -26
-65 -29 -155 -29 -92 0 -105 3 -168 32 -38 18 -81 42 -98 53 -34 25 -35 22
-10 -28 30 -57 99 -118 174 -153 62 -29 75 -31 136 -26 57 5 100 17 184 52 15
6 17 -1 17 -84 l0 -91 -27 0 c-43 -1 -105 -33 -140 -73 -41 -47 -57 -106 -49
-181 l6 -59 -128 6 c-185 8 -300 53 -393 155 -52 57 -55 66 -40 153 5 30 12
108 15 174 l6 120 -24 -114 c-29 -134 -72 -230 -122 -267 -31 -24 -41 -26 -93
-21 -68 6 -99 24 -135 77 -39 58 -63 143 -76 267 -26 233 45 587 154 774 46
78 144 179 175 179 61 0 112 -165 129 -418 5 -73 12 -135 15 -138 13 -13 31
182 31 351 1 181 2 192 24 222 92 129 323 201 609 190 105 -3 152 -10 196 -26
68 -24 205 -45 398 -61 245 -21 362 6 632 145 285 147 472 192 572 136z m-875
-901 c100 -40 269 -99 388 -134 269 -81 337 -94 598 -114 159 -13 209 -54 209
-170 -1 -112 -63 -195 -189 -252 -127 -58 -287 -59 -496 -4 -237 63 -575 179
-608 209 -10 9 -10 22 -1 65 22 102 -13 226 -97 342 -19 28 -32 54 -27 58 16
15 128 37 148 30 11 -5 45 -18 75 -30z m-138 -737 c63 -138 98 -282 98 -404 0
-65 -4 -82 -26 -114 -34 -50 -42 -58 -103 -95 -181 -112 -407 -66 -607 123
-46 44 -84 83 -84 88 0 5 -15 30 -34 56 -18 27 -39 59 -46 73 -50 95 -17 190
65 190 27 0 32 -4 43 -43 24 -80 58 -141 112 -200 63 -69 113 -97 172 -97 134
1 243 138 357 453 6 15 14 27 19 27 5 0 20 -26 34 -57z"/>
</g>
</svg>
